<svg version="1" xmlns="http://www.w3.org/2000/svg" width="682.667" height="682.667" viewBox="0 0 512.000000 512.000000"><path d="M233.2 1.1c-20.2 1.8-46.4 7.6-64.8 14.4C153.5 21 127.9 34 115 42.6 84.9 62.7 58.4 89.9 38.6 121c-6.3 9.8-18.5 34.9-23.1 47.4C3.8 200-1.6 238.7.8 272.3c1.8 25.5 6.9 50.1 14.7 71.3 4.6 12.5 16.8 37.6 23.1 47.4 26.1 41 61.7 73.2 103.9 94 32.7 16.1 60.5 23.6 97.2 26.2 33.6 2.4 72.2-3 103.9-14.7 15-5.5 40.5-18.5 53.4-27.1 38.3-25.6 68-59.4 88-99.9 16.1-32.7 23.6-60.5 26.2-97.2 2.4-33.6-3-72.2-14.7-103.9-5.5-14.9-18.5-40.5-27.1-53.4-25.5-38.2-59.4-68.1-99.9-88-19.1-9.4-31.2-14-48.9-18.5-29.8-7.6-58.3-10-87.4-7.4zm14.8 104c17.4 2.4 41 11.4 56.2 21.6 29.9 19.9 51.5 51.8 59.3 87.3 2.5 11.5 3.1 38.4 1.1 50.3-4.9 28.7-17.2 53.6-36.4 73.9-28.5 29.9-66.8 45.4-107.6 43.5-20.4-.9-40.8-6.4-58.7-15.9l-9.6-5.1-30.4 8.2c-16.7 4.4-30.9 8.1-31.5 8.1-.6 0 2.6-13.7 7.5-32l8.5-32-4.7-9.7c-9-19.1-12.5-33.4-13.4-54.9-.6-16.7.4-26.3 4.2-41.1 14.8-56.4 63.6-97.8 121.8-103.2 9.9-1 21.8-.6 33.7 1zm137.4 85.8c39.1 37.4 49.9 97.2 26.3 145.7l-4.5 9.1 7.8 28.9c4.2 15.9 7.3 29 6.9 29.2-.4.2-13.4-3.1-28.8-7.2l-28-7.5-6.7 3.9c-12.9 7.5-32.1 13.4-49.3 15-17.5 1.6-38.9-1.2-55.6-7.3l-6-2.2 6.5-1.3c50.9-10.1 90.8-39.8 112.8-83.8 20.4-40.7 22.4-85.6 5.8-128.8l-2.6-6.8 4.7 3.7c2.7 2.1 7.4 6.3 10.7 9.4z"/></svg>